<svg xmlns="http://www.w3.org/2000/svg" viewBox="0 0 120 120" fill="none" aria-hidden="true">
  <circle cx="60" cy="60" r="56" stroke="#57FFC4" stroke-width="2" opacity="0.35"/>
  <path
    d="M60 28c-8 0-14 6-14 14v8c0 2.2 1.8 4 4 4h2v18c0 6.6 5.4 12 12 12s12-5.4 12-12V54h2c2.2 0 4-1.8 4-4v-8c0-8-6-14-14-14z"
    stroke="#E8FFF5"
    stroke-width="3"
    stroke-linecap="round"
    stroke-linejoin="round"
  />
  <path
    d="M38 52c-10 4-16 12-16 22 0 8 6 14 14 14"
    stroke="#57FFC4"
    stroke-width="3"
    stroke-linecap="round"
  />
  <path
    d="M82 52c10 4 16 12 16 22 0 8-6 14-14 14"
    stroke="#57FFC4"
    stroke-width="3"
    stroke-linecap="round"
  />
  <path
    d="M60 22c0 0-8 10-8 18"
    stroke="#A8F0D8"
    stroke-width="2.5"
    stroke-linecap="round"
    opacity="0.9"
  />
  <path
    d="M60 22c0 0 8 10 8 18"
    stroke="#A8F0D8"
    stroke-width="2.5"
    stroke-linecap="round"
    opacity="0.9"
  />
  <path
    d="M48 18c4-6 12-8 12-8s8 2 12 8"
    stroke="#57FFC4"
    stroke-width="2"
    stroke-linecap="round"
    opacity="0.7"
  />
</svg>
